<mxfile host="app.diagrams.net" agent="Mozilla/5.0 (Windows NT 10.0; Win64; x64) AppleWebKit/537.36 (KHTML, like Gecko) Chrome/129.0.0.0 Safari/537.36" version="24.7.17">
  <diagram name="第 1 页" id="IbXh4RnN7X4YXBvQHois">
    <mxGraphModel dx="794" dy="412" grid="0" gridSize="10" guides="1" tooltips="1" connect="1" arrows="1" fold="1" page="1" pageScale="1" pageWidth="2200" pageHeight="1920" math="0" shadow="0">
      <root>
        <mxCell id="0" />
        <mxCell id="1" parent="0" />
        <mxCell id="JLJteHUG3Cq8SzEx0d7E-1" value="9" style="ellipse;whiteSpace=wrap;html=1;aspect=fixed;" vertex="1" parent="1">
          <mxGeometry x="310" y="70" width="50" height="50" as="geometry" />
        </mxCell>
        <mxCell id="JLJteHUG3Cq8SzEx0d7E-2" value="6" style="ellipse;whiteSpace=wrap;html=1;aspect=fixed;" vertex="1" parent="1">
          <mxGeometry x="210" y="147" width="50" height="50" as="geometry" />
        </mxCell>
        <mxCell id="JLJteHUG3Cq8SzEx0d7E-3" value="4" style="ellipse;whiteSpace=wrap;html=1;aspect=fixed;" vertex="1" parent="1">
          <mxGeometry x="420" y="147" width="50" height="50" as="geometry" />
        </mxCell>
        <mxCell id="JLJteHUG3Cq8SzEx0d7E-4" value="5" style="ellipse;whiteSpace=wrap;html=1;aspect=fixed;" vertex="1" parent="1">
          <mxGeometry x="150" y="237" width="50" height="50" as="geometry" />
        </mxCell>
        <mxCell id="JLJteHUG3Cq8SzEx0d7E-5" value="5" style="ellipse;whiteSpace=wrap;html=1;aspect=fixed;" vertex="1" parent="1">
          <mxGeometry x="270" y="237" width="50" height="50" as="geometry" />
        </mxCell>
        <mxCell id="JLJteHUG3Cq8SzEx0d7E-6" value="3" style="ellipse;whiteSpace=wrap;html=1;aspect=fixed;" vertex="1" parent="1">
          <mxGeometry x="370" y="237" width="50" height="50" as="geometry" />
        </mxCell>
        <mxCell id="JLJteHUG3Cq8SzEx0d7E-7" value="2" style="ellipse;whiteSpace=wrap;html=1;aspect=fixed;" vertex="1" parent="1">
          <mxGeometry x="490" y="237" width="50" height="50" as="geometry" />
        </mxCell>
        <mxCell id="JLJteHUG3Cq8SzEx0d7E-8" value="1" style="ellipse;whiteSpace=wrap;html=1;aspect=fixed;" vertex="1" parent="1">
          <mxGeometry x="90" y="307" width="50" height="50" as="geometry" />
        </mxCell>
        <mxCell id="JLJteHUG3Cq8SzEx0d7E-9" value="1" style="ellipse;whiteSpace=wrap;html=1;aspect=fixed;" vertex="1" parent="1">
          <mxGeometry x="210" y="307" width="50" height="50" as="geometry" />
        </mxCell>
        <mxCell id="JLJteHUG3Cq8SzEx0d7E-10" value="" style="endArrow=none;html=1;rounded=0;exitX=0.5;exitY=0;exitDx=0;exitDy=0;entryX=0.5;entryY=1;entryDx=0;entryDy=0;" edge="1" parent="1" source="JLJteHUG3Cq8SzEx0d7E-2" target="JLJteHUG3Cq8SzEx0d7E-1">
          <mxGeometry width="50" height="50" relative="1" as="geometry">
            <mxPoint x="240" y="120" as="sourcePoint" />
            <mxPoint x="290" y="70" as="targetPoint" />
          </mxGeometry>
        </mxCell>
        <mxCell id="JLJteHUG3Cq8SzEx0d7E-11" value="" style="endArrow=none;html=1;rounded=0;exitX=0.5;exitY=1;exitDx=0;exitDy=0;entryX=0.34;entryY=-0.01;entryDx=0;entryDy=0;entryPerimeter=0;" edge="1" parent="1" source="JLJteHUG3Cq8SzEx0d7E-1" target="JLJteHUG3Cq8SzEx0d7E-3">
          <mxGeometry width="50" height="50" relative="1" as="geometry">
            <mxPoint x="500" y="120" as="sourcePoint" />
            <mxPoint x="550" y="70" as="targetPoint" />
          </mxGeometry>
        </mxCell>
        <mxCell id="JLJteHUG3Cq8SzEx0d7E-13" value="" style="endArrow=none;html=1;rounded=0;entryX=0.5;entryY=1;entryDx=0;entryDy=0;exitX=0.5;exitY=0;exitDx=0;exitDy=0;" edge="1" parent="1" source="JLJteHUG3Cq8SzEx0d7E-4" target="JLJteHUG3Cq8SzEx0d7E-2">
          <mxGeometry width="50" height="50" relative="1" as="geometry">
            <mxPoint x="150" y="230" as="sourcePoint" />
            <mxPoint x="200" y="180" as="targetPoint" />
            <Array as="points">
              <mxPoint x="200" y="220" />
            </Array>
          </mxGeometry>
        </mxCell>
        <mxCell id="JLJteHUG3Cq8SzEx0d7E-14" value="" style="endArrow=none;html=1;rounded=0;exitX=0.35;exitY=-0.02;exitDx=0;exitDy=0;exitPerimeter=0;entryX=0.5;entryY=1;entryDx=0;entryDy=0;" edge="1" parent="1" source="JLJteHUG3Cq8SzEx0d7E-5" target="JLJteHUG3Cq8SzEx0d7E-2">
          <mxGeometry width="50" height="50" relative="1" as="geometry">
            <mxPoint x="185" y="247" as="sourcePoint" />
            <mxPoint x="290" y="200" as="targetPoint" />
            <Array as="points" />
          </mxGeometry>
        </mxCell>
        <mxCell id="JLJteHUG3Cq8SzEx0d7E-15" value="" style="endArrow=none;html=1;rounded=0;entryX=0.5;entryY=1;entryDx=0;entryDy=0;exitX=0.5;exitY=0;exitDx=0;exitDy=0;" edge="1" parent="1" source="JLJteHUG3Cq8SzEx0d7E-6" target="JLJteHUG3Cq8SzEx0d7E-3">
          <mxGeometry width="50" height="50" relative="1" as="geometry">
            <mxPoint x="360" y="430" as="sourcePoint" />
            <mxPoint x="410" y="380" as="targetPoint" />
          </mxGeometry>
        </mxCell>
        <mxCell id="JLJteHUG3Cq8SzEx0d7E-16" value="" style="endArrow=none;html=1;rounded=0;entryX=0.5;entryY=1;entryDx=0;entryDy=0;exitX=0.5;exitY=0;exitDx=0;exitDy=0;" edge="1" parent="1" source="JLJteHUG3Cq8SzEx0d7E-7" target="JLJteHUG3Cq8SzEx0d7E-3">
          <mxGeometry width="50" height="50" relative="1" as="geometry">
            <mxPoint x="195" y="257" as="sourcePoint" />
            <mxPoint x="255" y="217" as="targetPoint" />
            <Array as="points" />
          </mxGeometry>
        </mxCell>
        <mxCell id="JLJteHUG3Cq8SzEx0d7E-17" value="" style="endArrow=none;html=1;rounded=0;entryX=0.5;entryY=1;entryDx=0;entryDy=0;exitX=0.5;exitY=0;exitDx=0;exitDy=0;" edge="1" parent="1" source="JLJteHUG3Cq8SzEx0d7E-8" target="JLJteHUG3Cq8SzEx0d7E-4">
          <mxGeometry width="50" height="50" relative="1" as="geometry">
            <mxPoint x="70" y="310" as="sourcePoint" />
            <mxPoint x="120" y="260" as="targetPoint" />
          </mxGeometry>
        </mxCell>
        <mxCell id="JLJteHUG3Cq8SzEx0d7E-18" value="" style="endArrow=none;html=1;rounded=0;entryX=0.5;entryY=1;entryDx=0;entryDy=0;exitX=0.5;exitY=0;exitDx=0;exitDy=0;" edge="1" parent="1" source="JLJteHUG3Cq8SzEx0d7E-9" target="JLJteHUG3Cq8SzEx0d7E-4">
          <mxGeometry width="50" height="50" relative="1" as="geometry">
            <mxPoint x="240" y="470" as="sourcePoint" />
            <mxPoint x="290" y="420" as="targetPoint" />
          </mxGeometry>
        </mxCell>
      </root>
    </mxGraphModel>
  </diagram>
</mxfile>
